<svg xmlns="http://www.w3.org/2000/svg" width="192" height="192" viewBox="0 0 512 512"><rect width="512" height="512" rx="112" fill="#1FA2DE"/><path d="M256 88c-86 0-156 67-156 150 0 61 37 109 91 135v46c0 11 9 20 20 20h90c11 0 20-9 20-20v-46c54-26 91-74 91-135 0-83-70-150-156-150Z" fill="#fff"/><path d="M202 390h108M211 421h90" stroke="#3EB385" stroke-width="18" stroke-linecap="round"/><circle cx="205" cy="225" r="13" fill="#1FA2DE"/><circle cx="307" cy="225" r="13" fill="#1FA2DE"/><path d="M205 278c30 23 72 23 102 0" fill="none" stroke="#1FA2DE" stroke-width="16" stroke-linecap="round"/><path d="M178 173c21-26 53-41 78-41s57 15 78 41" fill="none" stroke="#3EB385" stroke-width="16" stroke-linecap="round"/></svg>